<svg xmlns:rdf="http://www.w3.org/1999/02/22-rdf-syntax-ns#" xmlns="http://www.w3.org/2000/svg" xmlns:cc="http://creativecommons.org/ns#" xmlns:xlink="http://www.w3.org/1999/xlink" xmlns:dc="http://purl.org/dc/elements/1.1/" xmlns:svg="http://www.w3.org/2000/svg" id="svg4697" viewBox="0 0 647.8 58.5" version="1.1">
  <defs id="defs4699">
    <filter id="filter4414" width="2.1143" y="-.016105" x="-.55714" height="1.0322" color-interpolation-filters="sRGB">
      <feGaussianBlur id="feGaussianBlur4416" stdDeviation="7.980777"/>
    </filter>
    <linearGradient id="linearGradient4457">
      <stop id="stop4459" stop-color="#f2f2f2" offset="0"/>
      <stop id="stop4461" stop-color="#f2f2f2" stop-opacity="0" offset="1"/>
    </linearGradient>
    <filter id="filter5404" height="2.8691" width="1.1784" y="-.93457" x="-.089191" color-interpolation-filters="sRGB">
      <feGaussianBlur id="feGaussianBlur5406" stdDeviation="54.490589"/>
    </filter>
    <linearGradient id="linearGradient5436" y2="-34.414" xlink:href="#linearGradient4457" gradientUnits="userSpaceOnUse" x2="-135.49" gradientTransform="translate(-.000005 .70938)" y1="-23.064" x1="-195.79"/>
    <linearGradient id="linearGradient5438" y2="-34.414" xlink:href="#linearGradient4457" gradientUnits="userSpaceOnUse" x2="-135.49" gradientTransform="matrix(-1 0 0 1 -286.19 .70938)" y1="-23.064" x1="-195.79"/>
    <linearGradient id="linearGradient5444" y2="1295.2" gradientUnits="userSpaceOnUse" x2="-130.26" y1="1359.5" x1="-129.04">
      <stop id="stop4510" stop-color="#fff" offset="0"/>
      <stop id="stop4512" stop-color="#fff" stop-opacity="0" offset="1"/>
    </linearGradient>
  </defs>
  <g id="layer1" transform="translate(686.32 -393.91)">
    <g id="g5408">
      <rect id="rect4602" ry="25.815" transform="matrix(.37492 0 0 -.10197 10.532 603.45)" height="139.93" filter="url(#filter5404)" width="1466.3" y="1612.1" x="-1727.9" fill="#1a1a1a"/>
      <rect id="rect4544" opacity=".98077" ry="9.9314" transform="matrix(.0091871 .99996 -.99996 .0094470 0 0)" height="531.88" width="40.127" y="77.863" x="393.24" fill="#b7741b"/>
      <path id="path4546" opacity=".98077" d="m163.16-222.16c0 15.302-12.405 27.707-27.707 27.707s-27.707-12.405-27.707-27.707 12.405-27.707 27.707-27.707 27.707 12.405 27.707 27.707z" transform="matrix(.0035841 .39010 -.38470 .0036344 -219.5 362.49)"/>
      <path id="path4548" opacity=".98077" d="m163.16-222.16c0 15.302-12.405 27.707-27.707 27.707s-27.707-12.405-27.707-27.707 12.405-27.707 27.707-27.707 27.707 12.405 27.707 27.707z" transform="matrix(.0023894 .26007 -.25647 .0024230 -333.93 381.19)"/>
      <path id="path4550" opacity=".98077" d="m163.16-222.16c0 15.302-12.405 27.707-27.707 27.707s-27.707-12.405-27.707-27.707 12.405-27.707 27.707-27.707 27.707 12.405 27.707 27.707z" transform="matrix(.0035841 .39010 -.38470 .0036344 -453.61 364.7)"/>
      <path id="path4552" opacity=".98077" d="m163.16-222.16c0 15.302-12.405 27.707-27.707 27.707s-27.707-12.405-27.707-27.707 12.405-27.707 27.707-27.707 27.707 12.405 27.707 27.707z" transform="matrix(.0035841 .39010 -.38470 .0036344 -408.1 364.27)"/>
      <path id="path4554" opacity=".98077" d="m163.16-222.16c0 15.302-12.405 27.707-27.707 27.707s-27.707-12.405-27.707-27.707 12.405-27.707 27.707-27.707 27.707 12.405 27.707 27.707z" transform="matrix(.0023894 .26007 -.25647 .0024230 -470.47 382.48)"/>
      <path id="path4556" opacity=".98077" d="m163.16-222.16c0 15.302-12.405 27.707-27.707 27.707s-27.707-12.405-27.707-27.707 12.405-27.707 27.707-27.707 27.707 12.405 27.707 27.707z" transform="matrix(.0035841 .39010 -.38470 .0036344 -544.63 365.56)"/>
      <path id="path4558" opacity=".98077" d="m163.16-222.16c0 15.302-12.405 27.707-27.707 27.707s-27.707-12.405-27.707-27.707 12.405-27.707 27.707-27.707 27.707 12.405 27.707 27.707z" transform="matrix(.0035841 .39010 -.38470 .0036344 -590.14 365.99)"/>
      <path id="path4560" opacity=".98077" d="m163.16-222.16c0 15.302-12.405 27.707-27.707 27.707s-27.707-12.405-27.707-27.707 12.405-27.707 27.707-27.707 27.707 12.405 27.707 27.707z" transform="matrix(.0013938 .15171 -.28838 .0027245 -615.01 382.52)"/>
      <path id="path4562" opacity=".98077" d="m-64.65 1314c0 15.302-29.634 27.707-66.189 27.707s-66.189-12.405-66.189-27.707 29.634-27.707 66.189-27.707 66.189 12.405 66.189 27.707z" fill-opacity=".92157" transform="matrix(.0027950 .30422 -.38470 .0036344 -91.511 454.18)" fill="#2b0000"/>
      <path id="path4564" opacity=".98077" d="m-64.65 1314c0 15.302-29.634 27.707-66.189 27.707s-66.189-12.405-66.189-27.707 29.634-27.707 66.189-27.707 66.189 12.405 66.189 27.707z" fill-opacity=".98039" transform="matrix(.0022349 .24326 -.26843 .0025360 -245.02 447.72)" fill="#b7741b"/>
      <path id="path4566" d="m-149.98 1245.8c17.437-397.55 43.775-795.76 7.1944-1189.3-26.18 401.16-13.831 794.69-7.1944 1189.3z" fill-opacity=".27976" transform="matrix(.0035841 .39010 -.36881 .0034843 -93.906 469.94)" filter="url(#filter4414)" fill="#fff"/>
      <path id="path4568" opacity=".98077" d="m-174.06 414.9c-0.10376-11.293-3.084-20.12-7.7642-20.076-0.64679 0.006-2.1677-0.0945-2.7699 0.24239 3.7933 2.0296 6.6885 10.137 6.7779 19.869 0.0894 9.7325-2.9243 18.073-6.6797 20.174 0.71036 0.005 0.41304-0.007 3.0766-0.0206 3.5034-0.0178 7.463-8.8953 7.3592-20.189z" fill="#c9c0bb"/>
      <path id="path4570" opacity=".98077" d="m-524.41 418.21c-0.10376-11.293-3.084-20.12-7.7642-20.076-0.64679 0.006-2.1677-0.0945-2.7699 0.2424 3.7933 2.0296 6.6885 10.137 6.7779 19.869 0.0894 9.7325-2.9243 18.073-6.6797 20.174 0.71033 0.005 0.41301-0.007 3.0766-0.0206 3.5034-0.0178 7.463-8.8953 7.3592-20.189z" fill="#c9c0bb"/>
      <g id="g4572" transform="matrix(.0035841 .39010 -.38470 .0036344 -108.36 470.08)">
        <path id="path4574" opacity=".98077" d="m-142.9-49.616c-28.91 0-51.562 6.7949-51.562 19.219 0 1.674-0.74783 6.1919 0 7.9062-0.003 0.0095 0.003 0.02176 0 0.03125-0.17572 0.61595-0.27939 1.2522-0.28125 1.875-0.003 0.88221 0.11471 5.8464 0.25 7.5625 0.007-0.01237 0.0245-0.01889 0.0312-0.03125-0.007 0.12542-0.0287 0.2481-0.0312 0.375-0.0321 1.6011-0.062 7.5035-0.0312 9.125 5.2941-9.8112 26.614-16.906 51.562-16.906 24.949 0 46.018 7.7826 51.313 17.594-0.0049-1.6564 0.03125-8.725 0.03125-10.406 0-0.41364-0.04259-0.79077-0.09375-1.1875 0.1917-2.4785 0.09375-6.3779 0.09375-7.75 0-0.26378-0.01035-0.52367-0.03125-0.78125-0.0017-0.02056 0.0018-0.04198 0-0.0625 0.40624-2.4563 0.21875-6.9664 0.21875-8.4688 0-12.424-22.559-18.094-51.469-18.094z" fill="#c9c0bb"/>
        <path id="path4576" opacity=".98077" d="m-142.9-49.616c-28.91 0-51.562 6.7949-51.562 19.219 0 1.674-0.74783 6.1919 0 7.9062-0.003 0.0095 0.003 0.02176 0 0.03125-0.17572 0.61595-0.27939 1.2522-0.28125 1.875-0.003 0.88221 0.11471 5.8464 0.25 7.5625 0.007-0.01237 0.0245-0.01889 0.0312-0.03125-0.007 0.12542-0.0287 0.2481-0.0312 0.375-0.0321 1.6011-0.062 7.5035-0.0312 9.125 5.2941-9.8112 26.614-16.906 51.562-16.906 24.949 0 46.018 7.7826 51.312 17.594-0.0049-1.6564 0.03125-8.725 0.03125-10.406 0-0.41364-0.04259-0.79077-0.09375-1.1875 0.1917-2.4785 0.09375-6.3779 0.09375-7.75 0-0.26378-0.01035-0.52367-0.03125-0.78125-0.0017-0.02056 0.0018-0.04198 0-0.0625 0.40624-2.4563 0.21875-6.9664 0.21875-8.4688 0-12.424-22.559-18.094-51.469-18.094z" fill="url(#linearGradient5436)"/>
        <path id="path4578" opacity=".98077" d="m-143.28-49.616c28.91 0 51.562 6.7949 51.562 19.219 0 1.674 0.74783 6.1919 0 7.9062 0.003 0.0095-0.003 0.02176 0 0.03125 0.17572 0.61595 0.27939 1.2522 0.28125 1.875 0.003 0.88221-0.11471 5.8464-0.25 7.5625-0.007-0.01237-0.0245-0.01889-0.0312-0.03125 0.007 0.12542 0.0287 0.2481 0.0312 0.375 0.0321 1.6011 0.062 7.5035 0.0312 9.125-5.2941-9.8112-26.614-16.906-51.562-16.906-24.949 0-46.018 7.7826-51.312 17.594 0.005-1.6564-0.0312-8.725-0.0312-10.406 0-0.41364 0.0426-0.79077 0.0937-1.1875-0.1917-2.4785-0.0937-6.3779-0.0937-7.75 0-0.26378 0.0104-0.52367 0.0312-0.78125 0.002-0.02056-0.002-0.04198 0-0.0625-0.40624-2.4563-0.21875-6.9664-0.21875-8.4688 0-12.424 22.559-18.094 51.469-18.094z" fill="url(#linearGradient5438)"/>
      </g>
      <g id="g4580" transform="matrix(.0035841 .39010 -.38470 .0036344 -584.69 474.58)">
        <path id="path4582" opacity=".98077" d="m-142.9-49.616c-28.91 0-51.562 6.7949-51.562 19.219 0 1.674-0.74783 6.1919 0 7.9062-0.003 0.0095 0.003 0.02176 0 0.03125-0.17572 0.61595-0.27939 1.2522-0.28125 1.875-0.003 0.88221 0.11471 5.8464 0.25 7.5625 0.007-0.01237 0.0245-0.01889 0.0312-0.03125-0.007 0.12542-0.0287 0.2481-0.0312 0.375-0.0321 1.6011-0.062 7.5035-0.0312 9.125 5.2941-9.8112 26.614-16.906 51.562-16.906 24.949 0 46.018 7.7826 51.313 17.594-0.0049-1.6564 0.03125-8.725 0.03125-10.406 0-0.41364-0.04259-0.79077-0.09375-1.1875 0.1917-2.4785 0.09375-6.3779 0.09375-7.75 0-0.26378-0.01035-0.52367-0.03125-0.78125-0.0017-0.02056 0.0018-0.04198 0-0.0625 0.40624-2.4563 0.21875-6.9664 0.21875-8.4688 0-12.424-22.559-18.094-51.469-18.094z" fill="#c9c0bb"/>
        <path id="path4584" opacity=".98077" d="m-142.9-49.616c-28.91 0-51.562 6.7949-51.562 19.219 0 1.674-0.74783 6.1919 0 7.9062-0.003 0.0095 0.003 0.02176 0 0.03125-0.17572 0.61595-0.27939 1.2522-0.28125 1.875-0.003 0.88221 0.11471 5.8464 0.25 7.5625 0.007-0.01237 0.0245-0.01889 0.0312-0.03125-0.007 0.12542-0.0287 0.2481-0.0312 0.375-0.0321 1.6011-0.062 7.5035-0.0312 9.125 5.2941-9.8112 26.614-16.906 51.562-16.906 24.949 0 46.018 7.7826 51.312 17.594-0.0049-1.6564 0.03125-8.725 0.03125-10.406 0-0.41364-0.04259-0.79077-0.09375-1.1875 0.1917-2.4785 0.09375-6.3779 0.09375-7.75 0-0.26378-0.01035-0.52367-0.03125-0.78125-0.0017-0.02056 0.0018-0.04198 0-0.0625 0.40624-2.4563 0.21875-6.9664 0.21875-8.4688 0-12.424-22.559-18.094-51.469-18.094z" fill="url(#linearGradient5436)"/>
        <path id="path4586" opacity=".98077" d="m-143.28-49.616c28.91 0 51.562 6.7949 51.562 19.219 0 1.674 0.74783 6.1919 0 7.9062 0.003 0.0095-0.003 0.02176 0 0.03125 0.17572 0.61595 0.27939 1.2522 0.28125 1.875 0.003 0.88221-0.11471 5.8464-0.25 7.5625-0.007-0.01237-0.0245-0.01889-0.0312-0.03125 0.007 0.12542 0.0287 0.2481 0.0312 0.375 0.0321 1.6011 0.062 7.5035 0.0312 9.125-5.2941-9.8112-26.614-16.906-51.562-16.906-24.949 0-46.018 7.7826-51.312 17.594 0.005-1.6564-0.0312-8.725-0.0312-10.406 0-0.41364 0.0426-0.79077 0.0937-1.1875-0.1917-2.4785-0.0937-6.3779-0.0937-7.75 0-0.26378 0.0104-0.52367 0.0312-0.78125 0.002-0.02056-0.002-0.04198 0-0.0625-0.40624-2.4563-0.21875-6.9664-0.21875-8.4688 0-12.424 22.559-18.094 51.469-18.094z" fill="url(#linearGradient5438)"/>
      </g>
      <path id="path4588" opacity=".98077" d="m-104.19 1313.6c0 8.4003-1.2768 15.21-2.8519 15.21s-2.8519-6.8098-2.8519-15.21c0-8.4003 1.2768-15.21 2.8519-15.21s2.8519 6.8098 2.8519 15.21z" transform="matrix(.0035841 .39010 -.38470 .0036344 -108.36 470.08)" fill-opacity="0"/>
      <path id="path4590" opacity=".98077" d="m-64.65 1314c0 15.302-29.634 27.707-66.189 27.707s-66.189-12.405-66.189-27.707 29.634-27.707 66.189-27.707 66.189 12.405 66.189 27.707z" fill="url(#linearGradient5444)" transform="matrix(.0022349 .24326 -.26843 .0025360 -245.02 447.68)"/>
      <path id="path4836" opacity=".98077" d="m-72.674 413.99c-0.10376-11.293-3.084-20.12-7.7642-20.076-0.64678 0.006-2.1677-0.0945-2.7699 0.24239 3.7933 2.0296 6.6885 10.137 6.7779 19.869 0.08945 9.7325-2.9243 18.073-6.6797 20.174 0.71036 0.005 0.41304-0.007 3.0766-0.0206 3.5034-0.0178 7.463-8.8953 7.3592-20.189z" fill="#1a1a1a"/>
    </g>
  </g>
  <metadata>
    <rdf:RDF>
      <cc:Work>
        <dc:format>image/svg+xml</dc:format>
        <dc:type rdf:resource="http://purl.org/dc/dcmitype/StillImage"/>
        <cc:license rdf:resource="http://creativecommons.org/licenses/publicdomain/"/>
        <dc:publisher>
          <cc:Agent rdf:about="http://openclipart.org/">
            <dc:title>Openclipart</dc:title>
          </cc:Agent>
        </dc:publisher>
        <dc:title>Indian Flute</dc:title>
        <dc:date>2011-03-12T13:05:17</dc:date>
        <dc:description>Indian Bamboo flute</dc:description>
        <dc:source>http://openclipart.org/detail/126877/indian-flute-by-gsagri04</dc:source>
        <dc:creator>
          <cc:Agent>
            <dc:title>gsagri04</dc:title>
          </cc:Agent>
        </dc:creator>
        <dc:subject>
          <rdf:Bag>
            <rdf:li>Bamboo</rdf:li>
            <rdf:li>Classical</rdf:li>
            <rdf:li>Indian Flute</rdf:li>
            <rdf:li>Krishna</rdf:li>
            <rdf:li>Music</rdf:li>
            <rdf:li>bansuri</rdf:li>
            <rdf:li>clip art</rdf:li>
            <rdf:li>clipart</rdf:li>
            <rdf:li>openclipart</rdf:li>
            <rdf:li>venu</rdf:li>
          </rdf:Bag>
        </dc:subject>
      </cc:Work>
      <cc:License rdf:about="http://creativecommons.org/licenses/publicdomain/">
        <cc:permits rdf:resource="http://creativecommons.org/ns#Reproduction"/>
        <cc:permits rdf:resource="http://creativecommons.org/ns#Distribution"/>
        <cc:permits rdf:resource="http://creativecommons.org/ns#DerivativeWorks"/>
      </cc:License>
    </rdf:RDF>
  </metadata>
</svg>
